<svg version="1.1" id="Layer_1" xmlns="http://www.w3.org/2000/svg" xmlns:xlink="http://www.w3.org/1999/xlink" x="0px" y="0px"
	 width="100%" viewBox="0 0 8000 8000" enable-background="new 0 0 8000 8000" xml:space="preserve">
<path fill="#FFFFFF" opacity="1.000000" stroke="none" 
	d="
M4336.000000,8004.000000 
	C2890.666748,8004.000000 1447.333374,8004.000000 4.000000,8004.000000 
	C4.000000,5337.333496 4.000000,2670.666748 4.000000,4.000001 
	C2670.666748,4.000001 5337.333496,4.000001 8004.000000,4.000000 
	C8004.000000,2670.666748 8004.000000,5337.333496 8004.000000,8004.000000 
	C6782.000000,8004.000000 5560.000000,8004.000000 4336.000000,8004.000000 
M5666.881836,2797.796143 
	C5680.635254,2758.169434 5695.336426,2718.841309 5707.932617,2678.850098 
	C5730.165527,2608.265625 5745.901367,2536.120850 5757.660645,2463.030762 
	C5766.238770,2409.709717 5772.749512,2356.127930 5775.060547,2302.286621 
	C5779.350586,2202.352051 5778.115723,2102.520996 5764.906738,2003.025024 
	C5758.151367,1952.140625 5749.914062,1901.563965 5738.599121,1851.590576 
	C5695.806641,1662.594482 5621.917480,1486.555054 5515.872559,1324.247070 
	C5442.633301,1212.149902 5357.168945,1110.333984 5258.656250,1019.456116 
	C5202.216797,967.390625 5142.674316,919.329773 5079.625488,875.541870 
	C4966.268555,796.814575 4844.730469,733.813354 4715.220215,686.255249 
	C4638.216797,657.978271 4559.484375,635.648132 4478.977051,619.723938 
	C4435.209961,611.067017 4391.183594,604.253418 4346.862305,598.919128 
	C4301.842773,593.500854 4256.694336,589.977600 4211.455566,588.707520 
	C4161.521973,587.305542 4111.516113,586.471863 4061.611328,591.094849 
	C4035.754883,593.490051 4009.695557,593.925293 3983.917236,596.891968 
	C3934.988037,602.522949 3886.283447,609.773315 3837.940430,619.483154 
	C3715.290771,644.117432 3597.057617,682.267334 3483.426514,734.538330 
	C3342.672852,799.285645 3213.743164,882.337830 3096.637207,983.916565 
	C3017.816895,1052.286011 2946.262207,1127.456055 2881.970947,1209.515991 
	C2800.638184,1313.326904 2732.796143,1425.356934 2679.003662,1545.843994 
	C2645.271240,1621.399292 2617.133789,1698.940063 2595.486572,1778.817749 
	C2578.056885,1843.134033 2564.464844,1908.199951 2554.838379,1974.188354 
	C2548.390137,2018.388916 2542.977051,2062.725586 2541.013428,2107.227295 
	C2537.664795,2183.118896 2536.996094,2259.073486 2543.114502,2334.987793 
	C2546.755615,2380.165771 2552.184326,2425.033447 2559.273682,2469.770264 
	C2571.489502,2546.861084 2589.528076,2622.580566 2613.095703,2696.925781 
	C2648.042725,2807.167236 2694.192627,2912.555176 2751.963867,3012.819824 
	C2832.378906,3152.382812 2930.940674,3277.479980 3048.396973,3387.835449 
	C3132.281494,3466.648438 3223.258057,3535.974365 3321.777832,3595.313965 
	C3351.982910,3613.507324 3383.541260,3629.454102 3415.320801,3649.769531 
	C3415.426025,3657.095703 3415.622314,3664.422119 3415.622803,3671.748291 
	C3415.639893,3867.057861 3415.636963,4062.367676 3415.635742,4257.677246 
	C3415.635742,4262.343262 3415.822266,4267.020508 3415.555664,4271.671875 
	C3415.337158,4275.481445 3414.572021,4279.260742 3413.895020,4284.172363 
	C3405.118896,4284.309570 3397.227295,4284.540039 3389.335693,4284.540527 
	C3055.376221,4284.558594 2721.416748,4284.556152 2387.457275,4284.556641 
	C2381.458008,4284.556641 2375.452637,4284.401367 2369.461670,4284.625488 
	C2365.655762,4284.767578 2361.871338,4285.477051 2356.984131,4286.062988 
	C2356.770752,4294.311035 2356.422607,4301.514160 2356.421875,4308.717773 
	C2356.393066,4528.690918 2356.384277,4748.664551 2356.428223,4968.637695 
	C2356.431396,4983.966309 2356.758301,4999.298340 2357.194092,5014.621094 
	C2357.275879,5017.500000 2358.591553,5020.344238 2359.699463,5024.588379 
	C2366.042236,5020.135742 2371.004150,5016.890137 2375.712646,5013.310547 
	C2426.154785,4974.958008 2478.415283,4939.250488 2532.429443,4906.143555 
	C2711.853271,4796.170898 2903.053467,4715.985352 3110.859131,4677.874512 
	C3174.528320,4666.197266 3238.718750,4658.979004 3303.368408,4656.754395 
	C3348.648682,4655.196777 3393.932129,4655.678711 3439.242920,4658.915527 
	C3487.839111,4662.388184 3536.074463,4668.235840 3583.887695,4677.108887 
	C3699.124023,4698.494141 3809.414795,4735.278809 3915.152588,4785.761719 
	C4002.611816,4827.517578 4084.965820,4877.775879 4163.329102,4934.716309 
	C4212.475098,4970.426758 4264.129395,5002.078613 4318.321777,5029.589844 
	C4454.134766,5098.534668 4598.168945,5135.326172 4750.379883,5139.680176 
	C4787.675781,5140.746582 4824.953125,5139.910645 4862.255371,5137.046875 
	C4908.838867,5133.471680 4955.017090,5127.372070 5000.809082,5118.523438 
	C5089.338867,5101.417480 5175.282227,5075.357422 5258.897949,5041.685059 
	C5425.741699,4974.497559 5578.939453,4883.944336 5719.575684,4771.979492 
	C5743.564453,4752.881348 5738.856934,4758.516602 5738.810059,4732.285645 
	C5738.521484,4570.330566 5737.606934,4408.375977 5737.528320,4246.420898 
	C5737.328613,3836.470703 5737.398438,3426.520264 5737.518555,3016.570068 
	C5737.540039,2944.408936 5716.708008,2878.849609 5677.119141,2818.905029 
	C5673.081543,2812.791992 5669.105957,2806.638184 5666.881836,2797.796143 
M5690.078125,5192.031738 
	C5714.634766,5080.111816 5731.341797,4970.860352 5728.395996,4938.872070 
	C5724.614746,4940.924316 5721.121582,4942.450195 5718.027344,4944.562012 
	C5703.166992,4954.703613 5688.559082,4965.218750 5673.602051,4975.213867 
	C5520.393066,5077.596191 5357.322266,5159.668945 5180.872070,5214.126953 
	C5072.852051,5247.464844 4962.512695,5268.766602 4849.612793,5274.960449 
	C4781.703125,5278.686035 4713.786133,5277.175293 4646.036133,5269.110352 
	C4575.045898,5260.659668 4505.480469,5246.132812 4437.240234,5224.962891 
	C4309.391602,5185.301270 4192.231934,5124.483398 4083.997559,5046.152832 
	C4007.138672,4990.528809 3926.420166,4941.521484 3840.240479,4901.655273 
	C3698.225098,4835.960449 3549.134277,4799.372070 3392.746826,4793.010742 
	C3331.358154,4790.513184 3270.116699,4793.657715 3209.188477,4801.053711 
	C3131.686035,4810.461914 3055.605713,4826.959961 2980.956299,4849.932617 
	C2850.340088,4890.129883 2727.501465,4947.405762 2610.924561,5018.423340 
	C2535.103271,5064.613281 2462.923096,5115.911133 2394.857666,5172.940430 
	C2387.283203,5179.286133 2378.933838,5184.922852 2373.391113,5192.719727 
	C2385.769287,5302.395996 2445.832520,5526.199219 2474.647705,5568.921387 
	C2480.672852,5564.901855 2486.722412,5560.888184 2492.750000,5556.841309 
	C2604.321777,5481.944824 2722.039307,5418.695312 2847.231201,5369.564941 
	C2989.618164,5313.686523 3136.831299,5278.626953 3289.630127,5269.234863 
	C3379.627686,5263.703125 3469.517334,5267.217773 3558.757324,5281.022949 
	C3660.518066,5296.764648 3759.138916,5324.049805 3854.630371,5362.711426 
	C3958.842529,5404.903809 4056.683838,5458.768066 4149.053711,5522.682129 
	C4184.143066,5546.961426 4219.765625,5570.347168 4256.897461,5591.408691 
	C4418.715332,5683.191895 4592.615234,5728.703613 4778.645996,5726.751465 
	C4811.229004,5726.409668 4843.824219,5723.324707 4876.332520,5720.553223 
	C4941.538086,5714.994141 5005.462891,5702.088867 5068.649902,5685.344238 
	C5167.511719,5659.144531 5262.229004,5622.065430 5353.863281,5576.829590 
	C5443.085449,5532.784668 5527.982910,5481.546875 5609.170898,5424.089355 
	C5617.335449,5418.311523 5624.568359,5412.532715 5628.261719,5402.070312 
	C5652.222656,5334.187012 5673.053223,5265.419922 5690.078125,5192.031738 
M4905.007324,5855.532227 
	C4872.463379,5858.015625 4839.955566,5861.264648 4807.367188,5862.816895 
	C4745.992188,5865.741211 4684.742676,5862.346680 4623.817871,5855.029785 
	C4552.925781,5846.516113 4483.418945,5831.161133 4415.337891,5809.414062 
	C4298.931641,5772.230957 4191.212402,5717.637207 4090.585938,5648.587891 
	C4063.671387,5630.119629 4036.619629,5611.791016 4008.926025,5594.529297 
	C3904.307129,5529.318848 3793.208496,5478.380859 3674.238525,5445.393066 
	C3576.159668,5418.197754 3476.207764,5403.586426 3374.324951,5403.934570 
	C3343.041260,5404.041016 3311.735107,5405.588867 3280.489990,5407.369629 
	C3219.833740,5410.826172 3160.078369,5420.785645 3100.870117,5434.089355 
	C3002.380615,5456.219238 2907.645508,5489.363770 2815.921631,5531.388184 
	C2720.545410,5575.085938 2630.217529,5627.532715 2544.137451,5687.392090 
	C2539.371094,5690.706543 2535.087402,5694.716309 2530.304199,5698.627441 
	C2532.958984,5704.618652 2534.880371,5709.541992 2537.259766,5714.233398 
	C2558.971680,5757.043457 2582.671875,5798.731445 2608.082520,5839.453125 
	C2641.633789,5893.220703 2678.211914,5944.851074 2717.623779,5994.468262 
	C2722.045654,6000.035156 2725.780029,6006.630371 2733.700928,6009.875488 
	C2741.328613,6005.851074 2748.950684,6001.865723 2756.540527,5997.819336 
	C2841.990234,5952.268066 2930.660156,5914.370117 3023.179688,5885.625488 
	C3128.689453,5852.846191 3236.615723,5833.588867 3347.010010,5829.083984 
	C3411.047607,5826.470703 3474.829102,5830.400391 3538.383545,5839.020996 
	C3614.590576,5849.357422 3688.705811,5867.908203 3760.979248,5893.928223 
	C3884.949463,5938.559570 3997.576660,6003.613770 4101.964844,6083.550293 
	C4125.760254,6101.771484 4149.813477,6119.758301 4174.687988,6136.451660 
	C4303.593750,6222.955078 4445.548828,6272.217285 4600.496094,6282.820312 
	C4655.079590,6286.556152 4709.778809,6285.275879 4764.204102,6279.121582 
	C4831.845215,6271.472168 4898.364258,6257.950684 4963.519043,6238.190918 
	C4991.540039,6229.692871 5019.066895,6219.564453 5047.075684,6211.020020 
	C5054.995117,6208.604004 5061.790527,6205.239746 5067.885742,6199.960449 
	C5091.054199,6179.888184 5114.725586,6160.363770 5137.306152,6139.649902 
	C5234.401367,6050.582520 5321.303223,5952.474121 5397.263184,5844.740723 
	C5438.004883,5786.956543 5475.540039,5727.175781 5509.320312,5665.058105 
	C5512.007812,5660.116211 5516.237305,5655.533203 5515.723145,5648.370605 
	C5508.516113,5648.181152 5503.988770,5652.416016 5499.050293,5655.148926 
	C5438.380371,5688.725586 5376.276367,5719.351562 5312.285156,5746.089355 
	C5218.025391,5785.474609 5121.300781,5817.097656 5020.896973,5836.564453 
	C4983.663574,5843.782227 4946.052246,5849.051270 4905.007324,5855.532227 
M4426.850098,6536.821777 
	C4536.179199,6508.080078 4710.558105,6435.809570 4735.750000,6413.361328 
	C4721.385742,6414.131348 4707.586914,6415.219238 4693.769531,6415.550293 
	C4642.409668,6416.782715 4591.219727,6414.928223 4540.114746,6408.885254 
	C4487.047363,6402.609863 4434.887695,6392.258301 4383.586914,6377.535645 
	C4256.433105,6341.044434 4141.498047,6280.513184 4037.219971,6199.613281 
	C3966.953369,6145.099609 3893.081787,6096.511230 3812.762695,6058.052734 
	C3654.302246,5982.179199 3487.718018,5949.440430 3312.189453,5963.005371 
	C3256.919678,5967.276367 3202.386963,5975.593262 3148.419189,5987.968750 
	C3038.690186,6013.131836 2934.664307,6053.597168 2834.796387,6105.150879 
	C2830.841309,6107.192383 2827.357178,6110.145996 2822.744141,6113.296387 
	C2828.157959,6119.019531 2832.607910,6123.888184 2837.231689,6128.585449 
	C2880.773193,6172.815918 2926.836426,6214.251953 2975.266602,6253.062988 
	C3105.239014,6357.221191 3247.778809,6439.627930 3403.321289,6499.212402 
	C3517.593506,6542.987305 3635.388916,6573.052246 3756.855225,6588.965820 
	C3827.036621,6598.160645 3897.445557,6603.103027 3968.124512,6602.538086 
	C4010.723877,6602.197754 4053.316650,6599.026855 4095.879639,6596.562988 
	C4145.151855,6593.710938 4193.982910,6586.684082 4242.589355,6578.517578 
	C4303.692383,6568.251465 4364.168945,6554.898926 4426.850098,6536.821777 
M3884.026611,7269.650879 
	C3886.805420,7276.424805 3889.267090,7283.350586 3892.417725,7289.946777 
	C3904.895020,7316.063477 3920.853760,7339.786133 3943.220215,7358.453613 
	C3992.755859,7399.796387 4049.629883,7411.264160 4111.872070,7397.677246 
	C4149.987305,7389.357422 4179.882324,7368.245117 4201.945801,7336.009277 
	C4204.396973,7332.427734 4205.542480,7327.528809 4210.496582,7325.922363 
	C4214.413086,7328.043945 4213.113770,7331.730469 4213.137695,7334.679199 
	C4213.296875,7354.000000 4213.369141,7373.324219 4213.163086,7392.644043 
	C4213.063477,7401.960449 4212.969727,7411.360840 4211.713379,7420.565430 
	C4206.798340,7456.560059 4188.962402,7482.740234 4153.227539,7494.237793 
	C4127.048828,7502.660645 4100.679688,7501.993652 4074.643799,7493.491211 
	C4053.316650,7486.526367 4037.507568,7473.068359 4028.665039,7452.041016 
	C4027.144775,7448.426270 4025.343994,7444.929199 4023.138428,7440.242188 
	C4007.798096,7440.242188 3992.571045,7440.242188 3977.343994,7440.242188 
	C3962.019775,7440.242188 3946.684082,7439.871094 3931.374756,7440.348145 
	C3916.346191,7440.815918 3901.102539,7438.173828 3885.518555,7442.231445 
	C3888.513428,7467.823730 3895.997803,7491.096680 3907.884277,7512.877930 
	C3935.929443,7564.270508 3979.406494,7596.305176 4035.177490,7611.825195 
	C4083.349854,7625.230469 4132.420898,7627.583008 4181.659668,7618.869141 
	C4233.427246,7609.708008 4276.967773,7585.685059 4309.433105,7543.587402 
	C4334.083496,7511.621582 4346.783691,7474.658691 4351.654785,7435.052246 
	C4353.923828,7416.602051 4354.655273,7397.862793 4354.687012,7379.252441 
	C4354.926270,7239.334961 4354.840332,7099.417969 4354.753418,6959.500488 
	C4354.748535,6952.328125 4356.000977,6944.932129 4353.460938,6938.483398 
	C4351.492676,6937.459473 4350.360840,6936.358887 4349.222168,6936.352539 
	C4307.262695,6936.115723 4265.302246,6935.958008 4223.342285,6935.883789 
	C4220.787109,6935.878906 4218.231445,6936.640625 4214.780762,6937.187500 
	C4214.246582,6941.977051 4213.365234,6946.461426 4213.312988,6950.955078 
	C4213.127930,6966.943359 4213.289062,6982.935547 4213.155273,6998.925293 
	C4213.130371,7001.934082 4214.041504,7005.795898 4208.754395,7006.727539 
	C4205.889160,7002.567383 4202.918945,6998.220703 4199.914062,6993.897461 
	C4181.819336,6967.863281 4157.487793,6950.133789 4127.773438,6939.445312 
	C4113.222168,6934.211426 4098.186523,6931.671387 4082.853271,6930.543945 
	C4029.199463,6926.599121 3981.259521,6940.583496 3940.650635,6976.628906 
	C3910.945312,7002.996582 3891.278809,7036.087402 3880.409424,7073.899414 
	C3861.913818,7138.241699 3862.164062,7202.674316 3884.026611,7269.650879 
M5791.366211,7361.765137 
	C5791.359863,7283.770508 5791.464355,7205.776367 5791.292480,7127.781738 
	C5791.224609,7096.926270 5787.131348,7066.622070 5775.855957,7037.673828 
	C5759.650879,6996.069336 5731.969238,6964.880371 5690.873047,6946.602051 
	C5653.128418,6929.813477 5613.381836,6927.015137 5573.330566,6934.248535 
	C5527.328613,6942.557617 5491.221191,6967.704102 5463.289551,7004.886230 
	C5459.371094,7010.102051 5455.447754,7015.314941 5450.648926,7021.695801 
	C5446.676270,7015.470215 5443.474121,7010.630371 5440.449219,7005.682617 
	C5424.706055,6979.932617 5402.993164,6960.932129 5375.907227,6947.752930 
	C5346.922852,6933.649414 5316.192871,6929.787109 5284.452637,6931.334473 
	C5231.900879,6933.895508 5189.356934,6954.709961 5159.991211,6999.583496 
	C5158.331055,7002.119629 5157.224609,7005.909180 5152.270020,7003.730957 
	C5152.270020,6985.241699 5152.378418,6966.584473 5152.180176,6947.930176 
	C5152.140625,6944.198730 5150.930664,6940.480469 5150.348145,6937.242188 
	C5147.860840,6936.630371 5146.592773,6936.047363 5145.323242,6936.044922 
	C5103.328613,6935.972656 5061.333984,6935.918457 5019.339844,6936.029297 
	C5016.924805,6936.036133 5014.513672,6937.454590 5011.333984,6938.458496 
	C5011.333984,6946.276367 5011.333984,6953.574707 5011.333984,6960.873047 
	C5011.333984,7089.532227 5011.333008,7218.190918 5011.334961,7346.850098 
	C5011.334961,7359.516113 5011.182617,7372.185547 5011.460938,7384.845215 
	C5011.542480,7388.558105 5012.867188,7392.243164 5013.676270,7396.206055 
	C5058.671875,7396.206055 5102.625488,7396.235840 5146.579102,7396.093750 
	C5148.258301,7396.088379 5149.931641,7394.418945 5152.292969,7393.159668 
	C5152.292969,7385.867676 5152.292480,7378.570801 5152.292480,7371.273438 
	C5152.295898,7299.944336 5152.089844,7228.614258 5152.491699,7157.287109 
	C5152.565918,7144.062012 5153.645508,7130.499512 5156.763184,7117.702148 
	C5164.492188,7085.979004 5184.548828,7064.953125 5216.435059,7056.767090 
	C5231.272949,7052.958008 5246.466797,7052.593750 5262.022461,7054.865723 
	C5295.401855,7059.740234 5322.035156,7083.786133 5327.968750,7120.479980 
	C5329.979980,7132.918945 5330.888184,7145.662109 5330.936035,7158.271484 
	C5331.208008,7230.266113 5331.005371,7302.262207 5331.169434,7374.257812 
	C5331.185547,7381.297852 5329.340820,7388.801758 5333.714844,7395.907715 
	C5337.285156,7396.159668 5340.537109,7396.584473 5343.789062,7396.588379 
	C5382.453613,7396.633789 5421.117676,7396.664551 5459.781738,7396.539551 
	C5463.517578,7396.527344 5467.250000,7395.454102 5472.134277,7394.694336 
	C5472.134277,7386.392578 5472.133789,7379.152832 5472.134277,7371.913086 
	C5472.138672,7299.917480 5471.952637,7227.920898 5472.327148,7155.927246 
	C5472.392578,7143.367676 5473.500977,7130.505371 5476.412109,7118.329102 
	C5483.988281,7086.637695 5503.513672,7065.226562 5535.442383,7056.811035 
	C5550.286133,7052.898438 5565.436035,7052.514160 5581.002930,7054.853516 
	C5614.726562,7059.923340 5643.175781,7084.532227 5648.206543,7123.992676 
	C5649.887695,7137.176270 5650.632812,7150.560059 5650.677734,7163.856934 
	C5650.914062,7233.851562 5650.742188,7303.848145 5650.861816,7373.843750 
	C5650.873535,7380.929688 5649.525391,7388.323730 5652.576172,7395.076660 
	C5655.382324,7395.693359 5657.266113,7396.467285 5659.151367,7396.470215 
	C5700.480957,7396.535645 5741.810547,7396.550293 5783.139648,7396.417969 
	C5785.534180,7396.410156 5787.924316,7395.061035 5791.366211,7394.018555 
	C5791.366211,7384.170410 5791.366211,7374.922363 5791.366211,7361.765137 
M4914.557617,7138.000000 
	C4914.557617,7077.367676 4914.612793,7016.734863 4914.476074,6956.102539 
	C4914.461914,6949.685059 4916.339355,6942.775879 4910.694824,6935.795898 
	C4888.863281,6935.795898 4866.254395,6935.483887 4843.657227,6935.883301 
	C4820.636719,6936.290039 4797.488770,6934.058105 4773.726074,6937.407715 
	C4773.432129,6944.503418 4773.102539,6950.394043 4772.970215,6956.288574 
	C4772.850098,6961.616699 4772.946289,6966.948730 4772.944824,6972.279297 
	C4772.942871,6978.275879 4773.182617,6984.285645 4772.862793,6990.265137 
	C4772.567871,6995.771484 4774.363281,7001.782715 4769.942383,7008.501953 
	C4765.950195,7002.844727 4762.954590,6998.677734 4760.039062,6994.455078 
	C4740.766113,6966.540527 4714.729492,6947.547852 4682.392090,6937.998535 
	C4668.464355,6933.885742 4653.772949,6931.418945 4639.271484,6930.367676 
	C4601.940430,6927.661133 4566.339844,6934.621094 4533.351562,6952.983398 
	C4492.611328,6975.661621 4465.436523,7010.105957 4447.691895,7052.510742 
	C4426.244141,7103.767090 4424.170898,7157.366211 4429.953125,7211.615234 
	C4432.789062,7238.219727 4439.820801,7263.941406 4451.342773,7288.249023 
	C4481.786133,7352.474609 4530.393066,7393.163574 4602.335938,7401.233887 
	C4670.341309,7408.862305 4727.567871,7389.847168 4765.906738,7329.100098 
	C4767.312988,7326.871582 4768.955566,7324.771484 4772.965332,7327.365234 
	C4772.965332,7346.023926 4772.850098,7365.321289 4773.067383,7384.614746 
	C4773.108887,7388.306641 4774.461914,7391.983887 4775.103027,7395.140625 
	C4777.590820,7395.794434 4778.872559,7396.424316 4780.155273,7396.426758 
	C4822.129883,7396.502930 4864.104004,7396.551758 4906.078613,7396.459473 
	C4908.478027,7396.454102 4910.875000,7395.229492 4912.577637,7394.762695 
	C4913.406250,7392.311035 4914.184570,7391.079102 4914.187012,7389.846191 
	C4914.350098,7307.230957 4914.450684,7224.615234 4914.557617,7138.000000 
M2406.739990,7221.321777 
	C2404.770508,7221.028320 2402.801270,7220.481934 2400.831299,7220.479004 
	C2357.506104,7220.416504 2314.180908,7220.387207 2270.855713,7220.455566 
	C2267.664307,7220.460449 2264.473633,7221.255859 2261.779785,7221.617676 
	C2260.928711,7223.791016 2260.125488,7224.976074 2260.052734,7226.204102 
	C2259.896240,7228.850098 2259.877686,7231.549316 2260.215820,7234.173340 
	C2265.394043,7274.361328 2280.502686,7309.897949 2309.661377,7338.728516 
	C2327.395264,7356.263672 2347.781250,7370.156250 2370.731445,7379.712891 
	C2436.448242,7407.077148 2504.345947,7411.950195 2572.146484,7391.160156 
	C2641.815430,7369.796875 2685.850098,7323.041992 2693.918945,7248.345215 
	C2698.734131,7203.767578 2689.667725,7162.092285 2659.349365,7126.959473 
	C2643.916260,7109.077148 2625.911133,7094.550293 2604.767822,7083.927734 
	C2579.721924,7071.345703 2553.683594,7061.206543 2527.340820,7051.717285 
	C2504.790771,7043.594727 2482.369873,7035.085938 2460.095703,7026.235352 
	C2445.088867,7020.271973 2431.648682,7011.638672 2420.907715,6999.307129 
	C2399.927002,6975.218750 2405.358398,6928.544922 2442.988281,6917.781738 
	C2459.345947,6913.103516 2476.012695,6913.441895 2492.038330,6919.907715 
	C2509.291260,6926.868652 2519.403076,6940.529785 2525.705322,6957.407715 
	C2527.997559,6963.547363 2529.884766,6969.837891 2532.254639,6976.953613 
	C2580.114990,6976.953613 2627.386475,6976.977051 2674.657959,6976.888672 
	C2677.173340,6976.883789 2679.687256,6975.932617 2682.964844,6975.267090 
	C2682.964844,6971.474609 2683.397461,6968.224609 2682.901855,6965.123535 
	C2670.790039,6889.320801 2627.663086,6839.889648 2555.065918,6816.153320 
	C2513.821533,6802.668945 2471.199951,6801.207031 2428.464355,6805.286133 
	C2401.186279,6807.889648 2374.737549,6814.824219 2349.904541,6827.032227 
	C2296.199951,6853.435547 2263.496338,6895.180664 2258.051514,6955.618652 
	C2251.760498,7025.456543 2277.551514,7080.053223 2340.914307,7115.459961 
	C2349.613037,7120.320801 2358.748047,7124.546875 2368.020996,7128.205078 
	C2392.176270,7137.731445 2416.532715,7146.747070 2440.786133,7156.026367 
	C2458.198730,7162.687500 2475.673828,7169.202148 2492.936523,7176.234863 
	C2507.308838,7182.089355 2519.971436,7190.745605 2530.254150,7202.453125 
	C2553.851074,7229.321289 2544.574707,7273.192871 2512.211426,7286.550781 
	C2478.763184,7300.355469 2430.514404,7288.216797 2415.361328,7244.693359 
	C2412.965088,7237.810547 2411.229248,7230.696777 2406.739990,7221.321777 
M3039.653809,6954.063477 
	C3016.035889,6938.933594 2989.884766,6931.931152 2962.164551,6930.378418 
	C2895.769043,6926.660645 2840.598877,6948.977539 2798.941895,7001.755859 
	C2777.079346,7029.455078 2763.461182,7061.106445 2756.142334,7095.467285 
	C2747.445801,7136.296387 2746.383057,7177.449219 2752.685791,7218.686035 
	C2757.976318,7253.299805 2769.281494,7285.797852 2788.070557,7315.591797 
	C2833.787354,7388.084473 2914.927002,7415.468750 2992.942871,7397.957520 
	C3033.216797,7388.917480 3064.272949,7366.177734 3086.433350,7331.284180 
	C3088.326660,7328.302246 3088.804443,7323.364258 3095.453369,7324.060547 
	C3095.453369,7335.813965 3095.273438,7347.634277 3095.503662,7359.446289 
	C3095.733643,7371.232422 3094.388428,7383.145508 3096.745850,7396.211426 
	C3108.959961,7396.362793 3120.143311,7396.556152 3131.327393,7396.625000 
	C3142.658936,7396.694336 3153.991211,7396.640137 3165.322998,7396.640137 
	C3177.321533,7396.640137 3189.326904,7396.891602 3201.316650,7396.567871 
	C3212.385986,7396.269531 3223.667480,7398.076172 3235.415527,7394.901367 
	C3235.637451,7386.690430 3235.999512,7379.468750 3236.002686,7372.247559 
	C3236.041260,7281.592285 3236.027832,7190.936523 3236.027832,7100.281250 
	C3236.027832,7051.620605 3236.092773,7002.959473 3235.942627,6954.299316 
	C3235.924805,6948.550293 3237.712158,6942.293945 3232.704590,6936.580566 
	C3229.896729,6936.353516 3226.643555,6935.866699 3223.389893,6935.862305 
	C3184.728027,6935.808594 3146.065918,6935.767578 3107.404785,6935.922363 
	C3103.680176,6935.937500 3099.960938,6937.283203 3095.174072,6938.219727 
	C3095.174072,6961.685059 3095.179932,6984.311035 3095.132812,7006.937500 
	C3095.131836,7007.403320 3094.606934,7008.003418 3094.164307,7008.298828 
	C3093.639893,7008.649414 3092.939453,7008.736328 3091.491211,7009.203125 
	C3078.951904,6987.990723 3063.228760,6969.268066 3039.653809,6954.063477 
M3656.327148,7286.000000 
	C3656.329834,7317.991211 3656.269775,7349.982910 3656.406982,7381.973145 
	C3656.426025,7386.417969 3657.418457,7390.857910 3657.925781,7395.018066 
	C3679.412598,7397.657227 3782.123047,7397.181152 3797.117920,7394.354004 
	C3797.516846,7390.073242 3798.304932,7385.537598 3798.308594,7381.000977 
	C3798.377441,7295.024902 3798.648926,7209.047852 3798.183350,7123.074219 
	C3798.027832,7094.349609 3794.246826,7065.889648 3783.927979,7038.767578 
	C3765.072266,6989.207520 3732.056641,6954.132812 3680.435791,6938.159668 
	C3657.778076,6931.147949 3634.545410,6930.235840 3611.175293,6931.455078 
	C3557.893066,6934.233887 3515.402588,6956.908691 3484.677246,7000.939453 
	C3482.583740,7003.939453 3481.661621,7008.290039 3475.683105,7009.119141 
	C3475.384766,7005.256836 3474.874756,7001.572266 3474.853027,6997.884277 
	C3474.754639,6981.222656 3474.926270,6964.558105 3474.683105,6947.899414 
	C3474.628906,6944.180664 3473.292480,6940.480957 3472.350830,6935.799316 
	C3448.895752,6935.799316 3426.277588,6935.572754 3403.666016,6935.861816 
	C3380.582520,6936.157227 3357.415283,6934.503906 3333.266602,6937.097168 
	C3332.997314,6945.456055 3332.568604,6952.653320 3332.563477,6959.851074 
	C3332.513672,7031.831055 3332.533447,7103.810547 3332.533447,7175.790527 
	C3332.533447,7242.438477 3332.481689,7309.086426 3332.617432,7375.734375 
	C3332.630615,7382.185547 3330.844482,7389.040527 3334.915283,7394.950195 
	C3352.520508,7397.403320 3457.028076,7397.247559 3472.671631,7394.731445 
	C3476.474854,7388.026855 3474.688232,7380.535645 3474.703857,7373.391602 
	C3474.856201,7302.744629 3474.736816,7232.098145 3474.859131,7161.451172 
	C3474.878662,7150.136719 3474.905762,7138.721680 3476.312012,7127.526855 
	C3481.617188,7085.290527 3507.723389,7056.700684 3547.689697,7049.455078 
	C3556.769043,7047.809082 3566.291748,7047.667480 3575.549316,7048.111816 
	C3612.357178,7049.878906 3641.314941,7073.118652 3651.587646,7108.504883 
	C3655.146240,7120.763672 3656.377686,7133.286133 3656.345947,7146.038086 
	C3656.233154,7191.358887 3656.317627,7236.679199 3656.327148,7286.000000 
z"/>
<path fill="#F37A21" opacity="1.000000" stroke="none" 
	d="
M5665.102051,2800.502930 
	C5669.105957,2806.638184 5673.081543,2812.791992 5677.119141,2818.905029 
	C5716.708008,2878.849609 5737.540039,2944.408936 5737.518555,3016.570068 
	C5737.398438,3426.520264 5737.328613,3836.470703 5737.528320,4246.420898 
	C5737.606934,4408.375977 5738.521484,4570.330566 5738.810059,4732.285645 
	C5738.856934,4758.516602 5743.564453,4752.881348 5719.575684,4771.979492 
	C5578.939453,4883.944336 5425.741699,4974.497559 5258.897949,5041.685059 
	C5175.282227,5075.357422 5089.338867,5101.417480 5000.809082,5118.523438 
	C4955.017090,5127.372070 4908.838867,5133.471680 4862.255371,5137.046875 
	C4824.953125,5139.910645 4787.675781,5140.746582 4750.379883,5139.680176 
	C4598.168945,5135.326172 4454.134766,5098.534668 4318.321777,5029.589844 
	C4264.129395,5002.078613 4212.475098,4970.426758 4163.329102,4934.716309 
	C4084.965820,4877.775879 4002.611816,4827.517578 3915.152588,4785.761719 
	C3809.414795,4735.278809 3699.124023,4698.494141 3583.887695,4677.108887 
	C3536.074463,4668.235840 3487.839111,4662.388184 3439.242920,4658.915527 
	C3393.932129,4655.678711 3348.648682,4655.196777 3303.368408,4656.754395 
	C3238.718750,4658.979004 3174.528320,4666.197266 3110.859131,4677.874512 
	C2903.053467,4715.985352 2711.853271,4796.170898 2532.429443,4906.143555 
	C2478.415283,4939.250488 2426.154785,4974.958008 2375.712646,5013.310547 
	C2371.004150,5016.890137 2366.042236,5020.135742 2359.699463,5024.588379 
	C2358.591553,5020.344238 2357.275879,5017.500000 2357.194092,5014.621094 
	C2356.758301,4999.298340 2356.431396,4983.966309 2356.428223,4968.637695 
	C2356.384277,4748.664551 2356.393066,4528.690918 2356.421875,4308.717773 
	C2356.422607,4301.514160 2356.770752,4294.311035 2356.984131,4286.062988 
	C2361.871338,4285.477051 2365.655762,4284.767578 2369.461670,4284.625488 
	C2375.452637,4284.401367 2381.458008,4284.556641 2387.457275,4284.556641 
	C2721.416748,4284.556152 3055.376221,4284.558594 3389.335693,4284.540527 
	C3397.227295,4284.540039 3405.118896,4284.309570 3413.895020,4284.172363 
	C3414.572021,4279.260742 3415.337158,4275.481445 3415.555664,4271.671875 
	C3415.822266,4267.020508 3415.635742,4262.343262 3415.635742,4257.677246 
	C3415.636963,4062.367676 3415.639893,3867.057861 3415.622803,3671.748291 
	C3415.622314,3664.422119 3415.426025,3657.095703 3415.314453,3646.057617 
	C3415.476074,3633.686279 3415.788818,3625.026611 3415.790039,3616.366943 
	C3415.818115,3416.376221 3415.915039,3216.385254 3415.668213,3016.395020 
	C3415.640869,2994.323242 3416.803955,2972.417236 3421.369141,2950.935059 
	C3431.561035,2902.978516 3449.299561,2858.181396 3477.174805,2817.354248 
	C3510.611328,2768.382080 3554.188232,2731.256104 3605.868164,2703.180908 
	C3648.286865,2680.136230 3693.389893,2664.485596 3740.862061,2655.581787 
	C3745.860596,2654.644043 3750.556152,2652.090332 3754.776855,2650.515625 
	C3758.187012,2637.665527 3752.882324,2626.822998 3752.608154,2615.739258 
	C3751.720215,2579.849854 3749.198975,2543.917236 3755.959229,2508.158447 
	C3761.938477,2476.531250 3772.050537,2446.368408 3785.978760,2417.527344 
	C3807.837158,2372.266113 3841.115234,2335.814209 3879.033203,2303.929932 
	C3917.987793,2271.174316 3962.294434,2246.628662 4009.747070,2228.140381 
	C4030.815186,2219.931885 4052.149170,2212.299561 4073.702637,2205.482178 
	C4086.794922,2201.341309 4087.965332,2198.205322 4087.693359,2185.464111 
	C4087.423340,2172.803955 4087.716309,2160.133057 4087.583008,2147.468506 
	C4087.179443,2109.149902 4094.536133,2072.065918 4106.150391,2035.820068 
	C4123.580566,1981.425049 4149.735840,1931.769043 4185.569824,1886.907837 
	C4210.244629,1856.017700 4237.601074,1827.999512 4268.068848,1803.213623 
	C4311.061035,1768.238770 4357.836914,1738.678101 4407.805176,1714.714478 
	C4437.763672,1700.347168 4469.029297,1688.726196 4499.489258,1675.372803 
	C4510.261230,1670.650269 4522.458984,1668.766235 4532.541992,1660.428955 
	C4532.541992,1652.258911 4532.542969,1644.305054 4532.541992,1636.351074 
	C4532.526367,1471.692139 4532.506836,1307.033081 4532.498535,1142.374146 
	C4532.497559,1126.375122 4532.456055,1110.374390 4532.690918,1094.378296 
	C4532.735352,1091.371460 4534.001953,1088.382568 4534.674805,1085.511230 
	C4547.289062,1087.276001 5350.558105,1305.313110 5363.061035,1310.344971 
	C5364.023438,1310.732300 5364.455566,1312.436401 5365.619629,1314.309448 
	C5359.899902,1316.320557 5354.409668,1318.423218 5348.813477,1320.191650 
	C5306.314941,1333.620605 5263.770508,1346.904419 5221.289551,1360.387817 
	C5164.219238,1378.501709 5107.189941,1396.743164 5050.149414,1414.949707 
	C4973.452148,1439.430298 4896.765625,1463.947021 4820.064453,1488.415161 
	C4761.752441,1507.017212 4703.409668,1525.525024 4645.117676,1544.190918 
	C4636.988770,1546.793945 4629.072754,1550.061157 4621.753906,1552.763916 
	C4619.044922,1571.383179 4619.132324,1645.636841 4621.850098,1662.866333 
	C4627.366699,1665.062866 4633.429199,1667.598999 4639.578125,1669.904907 
	C4675.113770,1683.231201 4710.596680,1696.768555 4744.284668,1714.337280 
	C4769.652832,1727.567017 4794.818848,1741.295654 4819.309570,1756.071411 
	C4852.435547,1776.057129 4883.019043,1799.774292 4911.400391,1825.986328 
	C4948.743652,1860.476074 4980.686035,1899.434326 5006.552246,1943.520996 
	C5036.644531,1994.808960 5055.426758,2049.861816 5063.359863,2108.425293 
	C5066.826660,2134.015625 5069.595215,2159.966309 5067.722168,2186.039307 
	C5067.356934,2191.126221 5068.437500,2196.316650 5068.853516,2201.487549 
	C5072.450195,2202.641846 5074.936035,2203.435791 5077.419922,2204.237305 
	C5127.576660,2220.424805 5176.590332,2239.208984 5221.765625,2266.912109 
	C5249.089355,2283.667969 5274.832031,2302.539795 5298.083008,2324.574219 
	C5319.917969,2345.266357 5337.891602,2369.069580 5353.993164,2394.561279 
	C5385.415527,2444.306885 5398.904297,2499.287354 5403.362305,2557.006104 
	C5404.383301,2570.219971 5403.722168,2583.682129 5402.548828,2596.916016 
	C5401.203125,2612.089844 5398.338379,2627.125488 5396.354004,2642.250000 
	C5396.026855,2644.739502 5396.829590,2647.376953 5397.172852,2650.519775 
	C5401.816406,2652.275879 5405.950684,2654.589355 5410.360840,2655.393066 
	C5460.571777,2664.545166 5507.910645,2681.608154 5552.632812,2706.144043 
	C5579.034180,2720.628906 5603.769531,2737.395020 5625.073242,2758.800537 
	C5638.663086,2772.455566 5651.775391,2786.585693 5665.102051,2800.502930 
M4777.513672,3906.000244 
	C4777.513672,3864.020508 4777.513672,3822.041016 4777.513184,3780.061279 
	C4777.513184,3712.760498 4777.557129,3645.459961 4777.448242,3578.159180 
	C4777.437012,3571.062744 4778.652344,3563.692383 4775.881836,3557.197510 
	C4755.040527,3554.145020 4520.833008,3553.054688 4379.416016,3555.240479 
	C4374.920410,3555.309814 4370.432129,3555.863037 4364.671875,3556.283447 
	C4364.375488,3564.407227 4363.886230,3571.571045 4363.885254,3578.735107 
	C4363.845703,3836.610107 4363.852051,4094.485352 4363.852539,4352.360352 
	C4363.852539,4356.358398 4363.584961,4360.381836 4363.949707,4364.347168 
	C4364.294434,4368.092773 4365.309082,4371.777344 4366.025391,4375.468750 
	C4369.725586,4375.801758 4372.355957,4376.244629 4374.986328,4376.245117 
	C4504.923340,4376.281250 4634.860352,4376.295410 4764.797363,4376.206543 
	C4768.588379,4376.204102 4772.377930,4375.074219 4777.515137,4374.255371 
	C4777.515137,4219.010254 4777.515137,4064.505371 4777.513672,3906.000244 
z"/>
<path fill="#FAEC31" opacity="1.000000" stroke="none" 
	d="
M5665.992188,2799.149414 
	C5651.775391,2786.585693 5638.663086,2772.455566 5625.073242,2758.800537 
	C5603.769531,2737.395020 5579.034180,2720.628906 5552.632812,2706.144043 
	C5507.910645,2681.608154 5460.571777,2664.545166 5410.360840,2655.393066 
	C5405.950684,2654.589355 5401.816406,2652.275879 5397.172852,2650.519775 
	C5396.829590,2647.376953 5396.026855,2644.739502 5396.354004,2642.250000 
	C5398.338379,2627.125488 5401.203125,2612.089844 5402.548828,2596.916016 
	C5403.722168,2583.682129 5404.383301,2570.219971 5403.362305,2557.006104 
	C5398.904297,2499.287354 5385.415527,2444.306885 5353.993164,2394.561279 
	C5337.891602,2369.069580 5319.917969,2345.266357 5298.083008,2324.574219 
	C5274.832031,2302.539795 5249.089355,2283.667969 5221.765625,2266.912109 
	C5176.590332,2239.208984 5127.576660,2220.424805 5077.419922,2204.237305 
	C5074.936035,2203.435791 5072.450195,2202.641846 5068.853516,2201.487549 
	C5068.437500,2196.316650 5067.356934,2191.126221 5067.722168,2186.039307 
	C5069.595215,2159.966309 5066.826660,2134.015625 5063.359863,2108.425293 
	C5055.426758,2049.861816 5036.644531,1994.808960 5006.552246,1943.520996 
	C4980.686035,1899.434326 4948.743652,1860.476074 4911.400391,1825.986328 
	C4883.019043,1799.774292 4852.435547,1776.057129 4819.309570,1756.071411 
	C4794.818848,1741.295654 4769.652832,1727.567017 4744.284668,1714.337280 
	C4710.596680,1696.768555 4675.113770,1683.231201 4639.578125,1669.904907 
	C4633.429199,1667.598999 4627.366699,1665.062866 4621.850098,1662.866333 
	C4619.132324,1645.636841 4619.044922,1571.383179 4621.753906,1552.763916 
	C4629.072754,1550.061157 4636.988770,1546.793945 4645.117676,1544.190918 
	C4703.409668,1525.525024 4761.752441,1507.017212 4820.064453,1488.415161 
	C4896.765625,1463.947021 4973.452148,1439.430298 5050.149414,1414.949707 
	C5107.189941,1396.743164 5164.219238,1378.501709 5221.289551,1360.387817 
	C5263.770508,1346.904419 5306.314941,1333.620605 5348.813477,1320.191650 
	C5354.409668,1318.423218 5359.899902,1316.320557 5365.619629,1314.309448 
	C5364.455566,1312.436401 5364.023438,1310.732300 5363.061035,1310.344971 
	C5350.558105,1305.313110 4547.289062,1087.276001 4534.674805,1085.511230 
	C4534.001953,1088.382568 4532.735352,1091.371460 4532.690918,1094.378296 
	C4532.456055,1110.374390 4532.497559,1126.375122 4532.498535,1142.374146 
	C4532.506836,1307.033081 4532.526367,1471.692139 4532.541992,1636.351074 
	C4532.542969,1644.305054 4532.541992,1652.258911 4532.541992,1660.428955 
	C4522.458984,1668.766235 4510.261230,1670.650269 4499.489258,1675.372803 
	C4469.029297,1688.726196 4437.763672,1700.347168 4407.805176,1714.714478 
	C4357.836914,1738.678101 4311.061035,1768.238770 4268.068848,1803.213623 
	C4237.601074,1827.999512 4210.244629,1856.017700 4185.569824,1886.907837 
	C4149.735840,1931.769043 4123.580566,1981.425049 4106.150391,2035.820068 
	C4094.536133,2072.065918 4087.179443,2109.149902 4087.583008,2147.468506 
	C4087.716309,2160.133057 4087.423340,2172.803955 4087.693359,2185.464111 
	C4087.965332,2198.205322 4086.794922,2201.341309 4073.702637,2205.482178 
	C4052.149170,2212.299561 4030.815186,2219.931885 4009.747070,2228.140381 
	C3962.294434,2246.628662 3917.987793,2271.174316 3879.033203,2303.929932 
	C3841.115234,2335.814209 3807.837158,2372.266113 3785.978760,2417.527344 
	C3772.050537,2446.368408 3761.938477,2476.531250 3755.959229,2508.158447 
	C3749.198975,2543.917236 3751.720215,2579.849854 3752.608154,2615.739258 
	C3752.882324,2626.822998 3758.187012,2637.665527 3754.776855,2650.515625 
	C3750.556152,2652.090332 3745.860596,2654.644043 3740.862061,2655.581787 
	C3693.389893,2664.485596 3648.286865,2680.136230 3605.868164,2703.180908 
	C3554.188232,2731.256104 3510.611328,2768.382080 3477.174805,2817.354248 
	C3449.299561,2858.181396 3431.561035,2902.978516 3421.369141,2950.935059 
	C3416.803955,2972.417236 3415.640869,2994.323242 3415.668213,3016.395020 
	C3415.915039,3216.385254 3415.818115,3416.376221 3415.790039,3616.366943 
	C3415.788818,3625.026611 3415.476074,3633.686279 3414.894043,3644.387695 
	C3383.541260,3629.454102 3351.982910,3613.507324 3321.777832,3595.313965 
	C3223.258057,3535.974365 3132.281494,3466.648438 3048.396973,3387.835449 
	C2930.940674,3277.479980 2832.378906,3152.382812 2751.963867,3012.819824 
	C2694.192627,2912.555176 2648.042725,2807.167236 2613.095703,2696.925781 
	C2589.528076,2622.580566 2571.489502,2546.861084 2559.273682,2469.770264 
	C2552.184326,2425.033447 2546.755615,2380.165771 2543.114502,2334.987793 
	C2536.996094,2259.073486 2537.664795,2183.118896 2541.013428,2107.227295 
	C2542.977051,2062.725586 2548.390137,2018.388916 2554.838379,1974.188354 
	C2564.464844,1908.199951 2578.056885,1843.134033 2595.486572,1778.817749 
	C2617.133789,1698.940063 2645.271240,1621.399292 2679.003662,1545.843994 
	C2732.796143,1425.356934 2800.638184,1313.326904 2881.970947,1209.515991 
	C2946.262207,1127.456055 3017.816895,1052.286011 3096.637207,983.916565 
	C3213.743164,882.337830 3342.672852,799.285645 3483.426514,734.538330 
	C3597.057617,682.267334 3715.290771,644.117432 3837.940430,619.483154 
	C3886.283447,609.773315 3934.988037,602.522949 3983.917236,596.891968 
	C4009.695557,593.925293 4035.754883,593.490051 4061.611328,591.094849 
	C4111.516113,586.471863 4161.521973,587.305542 4211.455566,588.707520 
	C4256.694336,589.977600 4301.842773,593.500854 4346.862305,598.919128 
	C4391.183594,604.253418 4435.209961,611.067017 4478.977051,619.723938 
	C4559.484375,635.648132 4638.216797,657.978271 4715.220215,686.255249 
	C4844.730469,733.813354 4966.268555,796.814575 5079.625488,875.541870 
	C5142.674316,919.329773 5202.216797,967.390625 5258.656250,1019.456116 
	C5357.168945,1110.333984 5442.633301,1212.149902 5515.872559,1324.247070 
	C5621.917480,1486.555054 5695.806641,1662.594482 5738.599121,1851.590576 
	C5749.914062,1901.563965 5758.151367,1952.140625 5764.906738,2003.025024 
	C5778.115723,2102.520996 5779.350586,2202.352051 5775.060547,2302.286621 
	C5772.749512,2356.127930 5766.238770,2409.709717 5757.660645,2463.030762 
	C5745.901367,2536.120850 5730.165527,2608.265625 5707.932617,2678.850098 
	C5695.336426,2718.841309 5680.635254,2758.169434 5665.992188,2799.149414 
z"/>
<path fill="#F37A22" opacity="1.000000" stroke="none" 
	d="
M5689.601562,5193.631836 
	C5673.053223,5265.419922 5652.222656,5334.187012 5628.261719,5402.070312 
	C5624.568359,5412.532715 5617.335449,5418.311523 5609.170898,5424.089355 
	C5527.982910,5481.546875 5443.085449,5532.784668 5353.863281,5576.829590 
	C5262.229004,5622.065430 5167.511719,5659.144531 5068.649902,5685.344238 
	C5005.462891,5702.088867 4941.538086,5714.994141 4876.332520,5720.553223 
	C4843.824219,5723.324707 4811.229004,5726.409668 4778.645996,5726.751465 
	C4592.615234,5728.703613 4418.715332,5683.191895 4256.897461,5591.408691 
	C4219.765625,5570.347168 4184.143066,5546.961426 4149.053711,5522.682129 
	C4056.683838,5458.768066 3958.842529,5404.903809 3854.630371,5362.711426 
	C3759.138916,5324.049805 3660.518066,5296.764648 3558.757324,5281.022949 
	C3469.517334,5267.217773 3379.627686,5263.703125 3289.630127,5269.234863 
	C3136.831299,5278.626953 2989.618164,5313.686523 2847.231201,5369.564941 
	C2722.039307,5418.695312 2604.321777,5481.944824 2492.750000,5556.841309 
	C2486.722412,5560.888184 2480.672852,5564.901855 2474.647705,5568.921387 
	C2445.832520,5526.199219 2385.769287,5302.395996 2373.391113,5192.719727 
	C2378.933838,5184.922852 2387.283203,5179.286133 2394.857666,5172.940430 
	C2462.923096,5115.911133 2535.103271,5064.613281 2610.924561,5018.423340 
	C2727.501465,4947.405762 2850.340088,4890.129883 2980.956299,4849.932617 
	C3055.605713,4826.959961 3131.686035,4810.461914 3209.188477,4801.053711 
	C3270.116699,4793.657715 3331.358154,4790.513184 3392.746826,4793.010742 
	C3549.134277,4799.372070 3698.225098,4835.960449 3840.240479,4901.655273 
	C3926.420166,4941.521484 4007.138672,4990.528809 4083.997559,5046.152832 
	C4192.231934,5124.483398 4309.391602,5185.301270 4437.240234,5224.962891 
	C4505.480469,5246.132812 4575.045898,5260.659668 4646.036133,5269.110352 
	C4713.786133,5277.175293 4781.703125,5278.686035 4849.612793,5274.960449 
	C4962.512695,5268.766602 5072.852051,5247.464844 5180.872070,5214.126953 
	C5357.322266,5159.668945 5520.393066,5077.596191 5673.602051,4975.213867 
	C5688.559082,4965.218750 5703.166992,4954.703613 5718.027344,4944.562012 
	C5721.121582,4942.450195 5724.614746,4940.924316 5728.395996,4938.872070 
	C5731.341797,4970.860352 5714.634766,5080.111816 5689.601562,5193.631836 
z"/>
<path fill="#F37A22" opacity="1.000000" stroke="none" 
	d="
M4906.810547,5855.370605 
	C4946.052246,5849.051270 4983.663574,5843.782227 5020.896973,5836.564453 
	C5121.300781,5817.097656 5218.025391,5785.474609 5312.285156,5746.089355 
	C5376.276367,5719.351562 5438.380371,5688.725586 5499.050293,5655.148926 
	C5503.988770,5652.416016 5508.516113,5648.181152 5515.723145,5648.370605 
	C5516.237305,5655.533203 5512.007812,5660.116211 5509.320312,5665.058105 
	C5475.540039,5727.175781 5438.004883,5786.956543 5397.263184,5844.740723 
	C5321.303223,5952.474121 5234.401367,6050.582520 5137.306152,6139.649902 
	C5114.725586,6160.363770 5091.054199,6179.888184 5067.885742,6199.960449 
	C5061.790527,6205.239746 5054.995117,6208.604004 5047.075684,6211.020020 
	C5019.066895,6219.564453 4991.540039,6229.692871 4963.519043,6238.190918 
	C4898.364258,6257.950684 4831.845215,6271.472168 4764.204102,6279.121582 
	C4709.778809,6285.275879 4655.079590,6286.556152 4600.496094,6282.820312 
	C4445.548828,6272.217285 4303.593750,6222.955078 4174.687988,6136.451660 
	C4149.813477,6119.758301 4125.760254,6101.771484 4101.964844,6083.550293 
	C3997.576660,6003.613770 3884.949463,5938.559570 3760.979248,5893.928223 
	C3688.705811,5867.908203 3614.590576,5849.357422 3538.383545,5839.020996 
	C3474.829102,5830.400391 3411.047607,5826.470703 3347.010010,5829.083984 
	C3236.615723,5833.588867 3128.689453,5852.846191 3023.179688,5885.625488 
	C2930.660156,5914.370117 2841.990234,5952.268066 2756.540527,5997.819336 
	C2748.950684,6001.865723 2741.328613,6005.851074 2733.700928,6009.875488 
	C2725.780029,6006.630371 2722.045654,6000.035156 2717.623779,5994.468262 
	C2678.211914,5944.851074 2641.633789,5893.220703 2608.082520,5839.453125 
	C2582.671875,5798.731445 2558.971680,5757.043457 2537.259766,5714.233398 
	C2534.880371,5709.541992 2532.958984,5704.618652 2530.304199,5698.627441 
	C2535.087402,5694.716309 2539.371094,5690.706543 2544.137451,5687.392090 
	C2630.217529,5627.532715 2720.545410,5575.085938 2815.921631,5531.388184 
	C2907.645508,5489.363770 3002.380615,5456.219238 3100.870117,5434.089355 
	C3160.078369,5420.785645 3219.833740,5410.826172 3280.489990,5407.369629 
	C3311.735107,5405.588867 3343.041260,5404.041016 3374.324951,5403.934570 
	C3476.207764,5403.586426 3576.159668,5418.197754 3674.238525,5445.393066 
	C3793.208496,5478.380859 3904.307129,5529.318848 4008.926025,5594.529297 
	C4036.619629,5611.791016 4063.671387,5630.119629 4090.585938,5648.587891 
	C4191.212402,5717.637207 4298.931641,5772.230957 4415.337891,5809.414062 
	C4483.418945,5831.161133 4552.925781,5846.516113 4623.817871,5855.029785 
	C4684.742676,5862.346680 4745.992188,5865.741211 4807.367188,5862.816895 
	C4839.955566,5861.264648 4872.463379,5858.015625 4906.810547,5855.370605 
z"/>
<path fill="#F37B22" opacity="1.000000" stroke="none" 
	d="
M4425.309570,6537.309570 
	C4364.168945,6554.898926 4303.692383,6568.251465 4242.589355,6578.517578 
	C4193.982910,6586.684082 4145.151855,6593.710938 4095.879639,6596.562988 
	C4053.316650,6599.026855 4010.723877,6602.197754 3968.124512,6602.538086 
	C3897.445557,6603.103027 3827.036621,6598.160645 3756.855225,6588.965820 
	C3635.388916,6573.052246 3517.593506,6542.987305 3403.321289,6499.212402 
	C3247.778809,6439.627930 3105.239014,6357.221191 2975.266602,6253.062988 
	C2926.836426,6214.251953 2880.773193,6172.815918 2837.231689,6128.585449 
	C2832.607910,6123.888184 2828.157959,6119.019531 2822.744141,6113.296387 
	C2827.357178,6110.145996 2830.841309,6107.192383 2834.796387,6105.150879 
	C2934.664307,6053.597168 3038.690186,6013.131836 3148.419189,5987.968750 
	C3202.386963,5975.593262 3256.919678,5967.276367 3312.189453,5963.005371 
	C3487.718018,5949.440430 3654.302246,5982.179199 3812.762695,6058.052734 
	C3893.081787,6096.511230 3966.953369,6145.099609 4037.219971,6199.613281 
	C4141.498047,6280.513184 4256.433105,6341.044434 4383.586914,6377.535645 
	C4434.887695,6392.258301 4487.047363,6402.609863 4540.114746,6408.885254 
	C4591.219727,6414.928223 4642.409668,6416.782715 4693.769531,6415.550293 
	C4707.586914,6415.219238 4721.385742,6414.131348 4735.750000,6413.361328 
	C4710.558105,6435.809570 4536.179199,6508.080078 4425.309570,6537.309570 
z"/>
<path fill="#F37C24" opacity="1.000000" stroke="none" 
	d="
M3883.574707,7268.144531 
	C3862.164062,7202.674316 3861.913818,7138.241699 3880.409424,7073.899414 
	C3891.278809,7036.087402 3910.945312,7002.996582 3940.650635,6976.628906 
	C3981.259521,6940.583496 4029.199463,6926.599121 4082.853271,6930.543945 
	C4098.186523,6931.671387 4113.222168,6934.211426 4127.773438,6939.445312 
	C4157.487793,6950.133789 4181.819336,6967.863281 4199.914062,6993.897461 
	C4202.918945,6998.220703 4205.889160,7002.567383 4208.754395,7006.727539 
	C4214.041504,7005.795898 4213.130371,7001.934082 4213.155273,6998.925293 
	C4213.289062,6982.935547 4213.127930,6966.943359 4213.312988,6950.955078 
	C4213.365234,6946.461426 4214.246582,6941.977051 4214.780762,6937.187500 
	C4218.231445,6936.640625 4220.787109,6935.878906 4223.342285,6935.883789 
	C4265.302246,6935.958008 4307.262695,6936.115723 4349.222168,6936.352539 
	C4350.360840,6936.358887 4351.492676,6937.459473 4353.460938,6938.483398 
	C4356.000977,6944.932129 4354.748535,6952.328125 4354.753418,6959.500488 
	C4354.840332,7099.417969 4354.926270,7239.334961 4354.687012,7379.252441 
	C4354.655273,7397.862793 4353.923828,7416.602051 4351.654785,7435.052246 
	C4346.783691,7474.658691 4334.083496,7511.621582 4309.433105,7543.587402 
	C4276.967773,7585.685059 4233.427246,7609.708008 4181.659668,7618.869141 
	C4132.420898,7627.583008 4083.349854,7625.230469 4035.177490,7611.825195 
	C3979.406494,7596.305176 3935.929443,7564.270508 3907.884277,7512.877930 
	C3895.997803,7491.096680 3888.513428,7467.823730 3885.518555,7442.231445 
	C3901.102539,7438.173828 3916.346191,7440.815918 3931.374756,7440.348145 
	C3946.684082,7439.871094 3962.019775,7440.242188 3977.343994,7440.242188 
	C3992.571045,7440.242188 4007.798096,7440.242188 4023.138428,7440.242188 
	C4025.343994,7444.929199 4027.144775,7448.426270 4028.665039,7452.041016 
	C4037.507568,7473.068359 4053.316650,7486.526367 4074.643799,7493.491211 
	C4100.679688,7501.993652 4127.048828,7502.660645 4153.227539,7494.237793 
	C4188.962402,7482.740234 4206.798340,7456.560059 4211.713379,7420.565430 
	C4212.969727,7411.360840 4213.063477,7401.960449 4213.163086,7392.644043 
	C4213.369141,7373.324219 4213.296875,7354.000000 4213.137695,7334.679199 
	C4213.113770,7331.730469 4214.413086,7328.043945 4210.496582,7325.922363 
	C4205.542480,7327.528809 4204.396973,7332.427734 4201.945801,7336.009277 
	C4179.882324,7368.245117 4149.987305,7389.357422 4111.872070,7397.677246 
	C4049.629883,7411.264160 3992.755859,7399.796387 3943.220215,7358.453613 
	C3920.853760,7339.786133 3904.895020,7316.063477 3892.417725,7289.946777 
	C3889.267090,7283.350586 3886.805420,7276.424805 3883.574707,7268.144531 
M4068.970215,7270.078613 
	C4078.612061,7272.540039 4088.124023,7275.915527 4097.917969,7277.308105 
	C4150.141602,7284.734863 4192.868164,7255.766113 4206.945801,7210.216797 
	C4216.847656,7178.178711 4216.568359,7145.688965 4204.048828,7114.195801 
	C4192.475098,7085.082520 4171.073730,7065.877930 4140.706543,7058.159180 
	C4129.283691,7055.255371 4116.965820,7054.840820 4105.077148,7054.989746 
	C4064.661377,7055.496094 4028.338135,7080.829102 4016.075684,7127.628906 
	C4010.751465,7147.948730 4010.276367,7168.659180 4013.036621,7189.167969 
	C4017.732666,7224.058105 4033.311523,7252.342773 4068.970215,7270.078613 
z"/>
<path fill="#F37B22" opacity="1.000000" stroke="none" 
	d="
M5791.366211,7363.719727 
	C5791.366211,7374.922363 5791.366211,7384.170410 5791.366211,7394.018555 
	C5787.924316,7395.061035 5785.534180,7396.410156 5783.139648,7396.417969 
	C5741.810547,7396.550293 5700.480957,7396.535645 5659.151367,7396.470215 
	C5657.266113,7396.467285 5655.382324,7395.693359 5652.576172,7395.076660 
	C5649.525391,7388.323730 5650.873535,7380.929688 5650.861816,7373.843750 
	C5650.742188,7303.848145 5650.914062,7233.851562 5650.677734,7163.856934 
	C5650.632812,7150.560059 5649.887695,7137.176270 5648.206543,7123.992676 
	C5643.175781,7084.532227 5614.726562,7059.923340 5581.002930,7054.853516 
	C5565.436035,7052.514160 5550.286133,7052.898438 5535.442383,7056.811035 
	C5503.513672,7065.226562 5483.988281,7086.637695 5476.412109,7118.329102 
	C5473.500977,7130.505371 5472.392578,7143.367676 5472.327148,7155.927246 
	C5471.952637,7227.920898 5472.138672,7299.917480 5472.134277,7371.913086 
	C5472.133789,7379.152832 5472.134277,7386.392578 5472.134277,7394.694336 
	C5467.250000,7395.454102 5463.517578,7396.527344 5459.781738,7396.539551 
	C5421.117676,7396.664551 5382.453613,7396.633789 5343.789062,7396.588379 
	C5340.537109,7396.584473 5337.285156,7396.159668 5333.714844,7395.907715 
	C5329.340820,7388.801758 5331.185547,7381.297852 5331.169434,7374.257812 
	C5331.005371,7302.262207 5331.208008,7230.266113 5330.936035,7158.271484 
	C5330.888184,7145.662109 5329.979980,7132.918945 5327.968750,7120.479980 
	C5322.035156,7083.786133 5295.401855,7059.740234 5262.022461,7054.865723 
	C5246.466797,7052.593750 5231.272949,7052.958008 5216.435059,7056.767090 
	C5184.548828,7064.953125 5164.492188,7085.979004 5156.763184,7117.702148 
	C5153.645508,7130.499512 5152.565918,7144.062012 5152.491699,7157.287109 
	C5152.089844,7228.614258 5152.295898,7299.944336 5152.292480,7371.273438 
	C5152.292480,7378.570801 5152.292969,7385.867676 5152.292969,7393.159668 
	C5149.931641,7394.418945 5148.258301,7396.088379 5146.579102,7396.093750 
	C5102.625488,7396.235840 5058.671875,7396.206055 5013.676270,7396.206055 
	C5012.867188,7392.243164 5011.542480,7388.558105 5011.460938,7384.845215 
	C5011.182617,7372.185547 5011.334961,7359.516113 5011.334961,7346.850098 
	C5011.333008,7218.190918 5011.333984,7089.532227 5011.333984,6960.873047 
	C5011.333984,6953.574707 5011.333984,6946.276367 5011.333984,6938.458496 
	C5014.513672,6937.454590 5016.924805,6936.036133 5019.339844,6936.029297 
	C5061.333984,6935.918457 5103.328613,6935.972656 5145.323242,6936.044922 
	C5146.592773,6936.047363 5147.860840,6936.630371 5150.348145,6937.242188 
	C5150.930664,6940.480469 5152.140625,6944.198730 5152.180176,6947.930176 
	C5152.378418,6966.584473 5152.270020,6985.241699 5152.270020,7003.730957 
	C5157.224609,7005.909180 5158.331055,7002.119629 5159.991211,6999.583496 
	C5189.356934,6954.709961 5231.900879,6933.895508 5284.452637,6931.334473 
	C5316.192871,6929.787109 5346.922852,6933.649414 5375.907227,6947.752930 
	C5402.993164,6960.932129 5424.706055,6979.932617 5440.449219,7005.682617 
	C5443.474121,7010.630371 5446.676270,7015.470215 5450.648926,7021.695801 
	C5455.447754,7015.314941 5459.371094,7010.102051 5463.289551,7004.886230 
	C5491.221191,6967.704102 5527.328613,6942.557617 5573.330566,6934.248535 
	C5613.381836,6927.015137 5653.128418,6929.813477 5690.873047,6946.602051 
	C5731.969238,6964.880371 5759.650879,6996.069336 5775.855957,7037.673828 
	C5787.131348,7066.622070 5791.224609,7096.926270 5791.292480,7127.781738 
	C5791.464355,7205.776367 5791.359863,7283.770508 5791.366211,7363.719727 
z"/>
<path fill="#F37C24" opacity="1.000000" stroke="none" 
	d="
M4914.556641,7140.000000 
	C4914.450684,7224.615234 4914.350098,7307.230957 4914.187012,7389.846191 
	C4914.184570,7391.079102 4913.406250,7392.311035 4912.577637,7394.762695 
	C4910.875000,7395.229492 4908.478027,7396.454102 4906.078613,7396.459473 
	C4864.104004,7396.551758 4822.129883,7396.502930 4780.155273,7396.426758 
	C4778.872559,7396.424316 4777.590820,7395.794434 4775.103027,7395.140625 
	C4774.461914,7391.983887 4773.108887,7388.306641 4773.067383,7384.614746 
	C4772.850098,7365.321289 4772.965332,7346.023926 4772.965332,7327.365234 
	C4768.955566,7324.771484 4767.312988,7326.871582 4765.906738,7329.100098 
	C4727.567871,7389.847168 4670.341309,7408.862305 4602.335938,7401.233887 
	C4530.393066,7393.163574 4481.786133,7352.474609 4451.342773,7288.249023 
	C4439.820801,7263.941406 4432.789062,7238.219727 4429.953125,7211.615234 
	C4424.170898,7157.366211 4426.244141,7103.767090 4447.691895,7052.510742 
	C4465.436523,7010.105957 4492.611328,6975.661621 4533.351562,6952.983398 
	C4566.339844,6934.621094 4601.940430,6927.661133 4639.271484,6930.367676 
	C4653.772949,6931.418945 4668.464355,6933.885742 4682.392090,6937.998535 
	C4714.729492,6947.547852 4740.766113,6966.540527 4760.039062,6994.455078 
	C4762.954590,6998.677734 4765.950195,7002.844727 4769.942383,7008.501953 
	C4774.363281,7001.782715 4772.567871,6995.771484 4772.862793,6990.265137 
	C4773.182617,6984.285645 4772.942871,6978.275879 4772.944824,6972.279297 
	C4772.946289,6966.948730 4772.850098,6961.616699 4772.970215,6956.288574 
	C4773.102539,6950.394043 4773.432129,6944.503418 4773.726074,6937.407715 
	C4797.488770,6934.058105 4820.636719,6936.290039 4843.657227,6935.883301 
	C4866.254395,6935.483887 4888.863281,6935.795898 4910.694824,6935.795898 
	C4916.339355,6942.775879 4914.461914,6949.685059 4914.476074,6956.102539 
	C4914.612793,7016.734863 4914.557617,7077.367676 4914.556641,7140.000000 
M4587.688965,7233.672852 
	C4603.921387,7259.771484 4627.480469,7273.855469 4657.893555,7277.564941 
	C4713.637695,7284.362305 4753.444336,7252.758301 4766.847656,7209.912598 
	C4776.028320,7180.567871 4776.095703,7150.538086 4766.495605,7121.334961 
	C4755.797363,7088.792480 4733.692383,7066.598145 4700.071289,7058.029785 
	C4688.656250,7055.120117 4676.283203,7054.625977 4664.421387,7055.055664 
	C4621.189453,7056.621094 4587.767578,7082.561035 4576.917969,7124.138184 
	C4567.410156,7160.571777 4568.356445,7196.746582 4587.688965,7233.672852 
z"/>
<path fill="#F37B23" opacity="1.000000" stroke="none" 
	d="
M2407.964111,7222.505859 
	C2411.229248,7230.696777 2412.965088,7237.810547 2415.361328,7244.693359 
	C2430.514404,7288.216797 2478.763184,7300.355469 2512.211426,7286.550781 
	C2544.574707,7273.192871 2553.851074,7229.321289 2530.254150,7202.453125 
	C2519.971436,7190.745605 2507.308838,7182.089355 2492.936523,7176.234863 
	C2475.673828,7169.202148 2458.198730,7162.687500 2440.786133,7156.026367 
	C2416.532715,7146.747070 2392.176270,7137.731445 2368.020996,7128.205078 
	C2358.748047,7124.546875 2349.613037,7120.320801 2340.914307,7115.459961 
	C2277.551514,7080.053223 2251.760498,7025.456543 2258.051514,6955.618652 
	C2263.496338,6895.180664 2296.199951,6853.435547 2349.904541,6827.032227 
	C2374.737549,6814.824219 2401.186279,6807.889648 2428.464355,6805.286133 
	C2471.199951,6801.207031 2513.821533,6802.668945 2555.065918,6816.153320 
	C2627.663086,6839.889648 2670.790039,6889.320801 2682.901855,6965.123535 
	C2683.397461,6968.224609 2682.964844,6971.474609 2682.964844,6975.267090 
	C2679.687256,6975.932617 2677.173340,6976.883789 2674.657959,6976.888672 
	C2627.386475,6976.977051 2580.114990,6976.953613 2532.254639,6976.953613 
	C2529.884766,6969.837891 2527.997559,6963.547363 2525.705322,6957.407715 
	C2519.403076,6940.529785 2509.291260,6926.868652 2492.038330,6919.907715 
	C2476.012695,6913.441895 2459.345947,6913.103516 2442.988281,6917.781738 
	C2405.358398,6928.544922 2399.927002,6975.218750 2420.907715,6999.307129 
	C2431.648682,7011.638672 2445.088867,7020.271973 2460.095703,7026.235352 
	C2482.369873,7035.085938 2504.790771,7043.594727 2527.340820,7051.717285 
	C2553.683594,7061.206543 2579.721924,7071.345703 2604.767822,7083.927734 
	C2625.911133,7094.550293 2643.916260,7109.077148 2659.349365,7126.959473 
	C2689.667725,7162.092285 2698.734131,7203.767578 2693.918945,7248.345215 
	C2685.850098,7323.041992 2641.815430,7369.796875 2572.146484,7391.160156 
	C2504.345947,7411.950195 2436.448242,7407.077148 2370.731445,7379.712891 
	C2347.781250,7370.156250 2327.395264,7356.263672 2309.661377,7338.728516 
	C2280.502686,7309.897949 2265.394043,7274.361328 2260.215820,7234.173340 
	C2259.877686,7231.549316 2259.896240,7228.850098 2260.052734,7226.204102 
	C2260.125488,7224.976074 2260.928711,7223.791016 2261.779785,7221.617676 
	C2264.473633,7221.255859 2267.664307,7220.460449 2270.855713,7220.455566 
	C2314.180908,7220.387207 2357.506104,7220.416504 2400.831299,7220.479004 
	C2402.801270,7220.481934 2404.770508,7221.028320 2407.964111,7222.505859 
z"/>
<path fill="#F37B23" opacity="1.000000" stroke="none" 
	d="
M3040.872559,6954.856445 
	C3063.228760,6969.268066 3078.951904,6987.990723 3091.491211,7009.203125 
	C3092.939453,7008.736328 3093.639893,7008.649414 3094.164307,7008.298828 
	C3094.606934,7008.003418 3095.131836,7007.403320 3095.132812,7006.937500 
	C3095.179932,6984.311035 3095.174072,6961.685059 3095.174072,6938.219727 
	C3099.960938,6937.283203 3103.680176,6935.937500 3107.404785,6935.922363 
	C3146.065918,6935.767578 3184.728027,6935.808594 3223.389893,6935.862305 
	C3226.643555,6935.866699 3229.896729,6936.353516 3232.704590,6936.580566 
	C3237.712158,6942.293945 3235.924805,6948.550293 3235.942627,6954.299316 
	C3236.092773,7002.959473 3236.027832,7051.620605 3236.027832,7100.281250 
	C3236.027832,7190.936523 3236.041260,7281.592285 3236.002686,7372.247559 
	C3235.999512,7379.468750 3235.637451,7386.690430 3235.415527,7394.901367 
	C3223.667480,7398.076172 3212.385986,7396.269531 3201.316650,7396.567871 
	C3189.326904,7396.891602 3177.321533,7396.640137 3165.322998,7396.640137 
	C3153.991211,7396.640137 3142.658936,7396.694336 3131.327393,7396.625000 
	C3120.143311,7396.556152 3108.959961,7396.362793 3096.745850,7396.211426 
	C3094.388428,7383.145508 3095.733643,7371.232422 3095.503662,7359.446289 
	C3095.273438,7347.634277 3095.453369,7335.813965 3095.453369,7324.060547 
	C3088.804443,7323.364258 3088.326660,7328.302246 3086.433350,7331.284180 
	C3064.272949,7366.177734 3033.216797,7388.917480 2992.942871,7397.957520 
	C2914.927002,7415.468750 2833.787354,7388.084473 2788.070557,7315.591797 
	C2769.281494,7285.797852 2757.976318,7253.299805 2752.685791,7218.686035 
	C2746.383057,7177.449219 2747.445801,7136.296387 2756.142334,7095.467285 
	C2763.461182,7061.106445 2777.079346,7029.455078 2798.941895,7001.755859 
	C2840.598877,6948.977539 2895.769043,6926.660645 2962.164551,6930.378418 
	C2989.884766,6931.931152 3016.035889,6938.933594 3040.872559,6954.856445 
M2893.950928,7183.540527 
	C2894.464355,7186.831543 2895.068848,7190.111816 2895.477539,7193.415527 
	C2900.268066,7232.129395 2928.099121,7272.036621 2980.653320,7277.889160 
	C3034.741943,7283.912598 3074.745605,7252.788574 3088.410645,7211.005859 
	C3094.927246,7191.081055 3096.980957,7170.615723 3094.603027,7149.853027 
	C3092.063965,7127.685059 3085.737305,7106.822754 3071.073975,7089.272461 
	C3049.833252,7063.848145 3022.318848,7054.041016 2989.663818,7054.516602 
	C2942.149658,7055.208984 2908.158447,7086.010742 2897.964111,7126.574219 
	C2893.560059,7144.096680 2891.629395,7161.959473 2893.950928,7183.540527 
z"/>
<path fill="#F37C24" opacity="1.000000" stroke="none" 
	d="
M3656.327148,7284.000000 
	C3656.317627,7236.679199 3656.233154,7191.358887 3656.345947,7146.038086 
	C3656.377686,7133.286133 3655.146240,7120.763672 3651.587646,7108.504883 
	C3641.314941,7073.118652 3612.357178,7049.878906 3575.549316,7048.111816 
	C3566.291748,7047.667480 3556.769043,7047.809082 3547.689697,7049.455078 
	C3507.723389,7056.700684 3481.617188,7085.290527 3476.312012,7127.526855 
	C3474.905762,7138.721680 3474.878662,7150.136719 3474.859131,7161.451172 
	C3474.736816,7232.098145 3474.856201,7302.744629 3474.703857,7373.391602 
	C3474.688232,7380.535645 3476.474854,7388.026855 3472.671631,7394.731445 
	C3457.028076,7397.247559 3352.520508,7397.403320 3334.915283,7394.950195 
	C3330.844482,7389.040527 3332.630615,7382.185547 3332.617432,7375.734375 
	C3332.481689,7309.086426 3332.533447,7242.438477 3332.533447,7175.790527 
	C3332.533447,7103.810547 3332.513672,7031.831055 3332.563477,6959.851074 
	C3332.568604,6952.653320 3332.997314,6945.456055 3333.266602,6937.097168 
	C3357.415283,6934.503906 3380.582520,6936.157227 3403.666016,6935.861816 
	C3426.277588,6935.572754 3448.895752,6935.799316 3472.350830,6935.799316 
	C3473.292480,6940.480957 3474.628906,6944.180664 3474.683105,6947.899414 
	C3474.926270,6964.558105 3474.754639,6981.222656 3474.853027,6997.884277 
	C3474.874756,7001.572266 3475.384766,7005.256836 3475.683105,7009.119141 
	C3481.661621,7008.290039 3482.583740,7003.939453 3484.677246,7000.939453 
	C3515.402588,6956.908691 3557.893066,6934.233887 3611.175293,6931.455078 
	C3634.545410,6930.235840 3657.778076,6931.147949 3680.435791,6938.159668 
	C3732.056641,6954.132812 3765.072266,6989.207520 3783.927979,7038.767578 
	C3794.246826,7065.889648 3798.027832,7094.349609 3798.183350,7123.074219 
	C3798.648926,7209.047852 3798.377441,7295.024902 3798.308594,7381.000977 
	C3798.304932,7385.537598 3797.516846,7390.073242 3797.117920,7394.354004 
	C3782.123047,7397.181152 3679.412598,7397.657227 3657.925781,7395.018066 
	C3657.418457,7390.857910 3656.426025,7386.417969 3656.406982,7381.973145 
	C3656.269775,7349.982910 3656.329834,7317.991211 3656.327148,7284.000000 
z"/>
<path fill="#FFFFFF" opacity="1.000000" stroke="none" 
	d="
M4777.514648,3908.000488 
	C4777.515137,4064.505371 4777.515137,4219.010254 4777.515137,4374.255371 
	C4772.377930,4375.074219 4768.588379,4376.204102 4764.797363,4376.206543 
	C4634.860352,4376.295410 4504.923340,4376.281250 4374.986328,4376.245117 
	C4372.355957,4376.244629 4369.725586,4375.801758 4366.025391,4375.468750 
	C4365.309082,4371.777344 4364.294434,4368.092773 4363.949707,4364.347168 
	C4363.584961,4360.381836 4363.852539,4356.358398 4363.852539,4352.360352 
	C4363.852051,4094.485352 4363.845703,3836.610107 4363.885254,3578.735107 
	C4363.886230,3571.571045 4364.375488,3564.407227 4364.671875,3556.283447 
	C4370.432129,3555.863037 4374.920410,3555.309814 4379.416016,3555.240479 
	C4520.833008,3553.054688 4755.040527,3554.145020 4775.881836,3557.197510 
	C4778.652344,3563.692383 4777.437012,3571.062744 4777.448242,3578.159180 
	C4777.557129,3645.459961 4777.513184,3712.760498 4777.513184,3780.061279 
	C4777.513672,3822.041016 4777.513672,3864.020508 4777.514648,3908.000488 
z"/>
<path fill="#FFFDFC" opacity="1.000000" stroke="none" 
	d="
M4067.602783,7269.376465 
	C4033.311523,7252.342773 4017.732666,7224.058105 4013.036621,7189.167969 
	C4010.276367,7168.659180 4010.751465,7147.948730 4016.075684,7127.628906 
	C4028.338135,7080.829102 4064.661377,7055.496094 4105.077148,7054.989746 
	C4116.965820,7054.840820 4129.283691,7055.255371 4140.706543,7058.159180 
	C4171.073730,7065.877930 4192.475098,7085.082520 4204.048828,7114.195801 
	C4216.568359,7145.688965 4216.847656,7178.178711 4206.945801,7210.216797 
	C4192.868164,7255.766113 4150.141602,7284.734863 4097.917969,7277.308105 
	C4088.124023,7275.915527 4078.612061,7272.540039 4067.602783,7269.376465 
z"/>
<path fill="#FFFDFC" opacity="1.000000" stroke="none" 
	d="
M4586.910645,7232.409180 
	C4568.356445,7196.746582 4567.410156,7160.571777 4576.917969,7124.138184 
	C4587.767578,7082.561035 4621.189453,7056.621094 4664.421387,7055.055664 
	C4676.283203,7054.625977 4688.656250,7055.120117 4700.071289,7058.029785 
	C4733.692383,7066.598145 4755.797363,7088.792480 4766.495605,7121.334961 
	C4776.095703,7150.538086 4776.028320,7180.567871 4766.847656,7209.912598 
	C4753.444336,7252.758301 4713.637695,7284.362305 4657.893555,7277.564941 
	C4627.480469,7273.855469 4603.921387,7259.771484 4586.910645,7232.409180 
z"/>
<path fill="#FFFDFC" opacity="1.000000" stroke="none" 
	d="
M2893.666504,7181.806641 
	C2891.629395,7161.959473 2893.560059,7144.096680 2897.964111,7126.574219 
	C2908.158447,7086.010742 2942.149658,7055.208984 2989.663818,7054.516602 
	C3022.318848,7054.041016 3049.833252,7063.848145 3071.073975,7089.272461 
	C3085.737305,7106.822754 3092.063965,7127.685059 3094.603027,7149.853027 
	C3096.980957,7170.615723 3094.927246,7191.081055 3088.410645,7211.005859 
	C3074.745605,7252.788574 3034.741943,7283.912598 2980.653320,7277.889160 
	C2928.099121,7272.036621 2900.268066,7232.129395 2895.477539,7193.415527 
	C2895.068848,7190.111816 2894.464355,7186.831543 2893.666504,7181.806641 
z"/>
</svg>